# xmcd CD database file
#
# Track frame offsets:
#	150
#	10323
#	23747
#	41263
#	63090
#	82778
#	97703
#	115174
#	135108
#	147087
#	167745
#	184261
#	195688
#	214567
#
# Disc length: 3066 seconds
#
# Revision: 0
# Processed by: cddbd v1.5.2PL0 Copyright (c) Steve Scherf et al.
# Submitted via: CDex 1.70beta2
#
DISCID=a10bf80e
DTITLE=Lannie Garrett - Under Paris Skies
DYEAR=2005
DGENRE=Jazz
TTITLE0=What a night, what a moon, what a boy
TTITLE1=Just you, just me
TTITLE2=C'est si bon
TTITLE3=Bei mir bist du schoen
TTITLE4=Under Paris skies
TTITLE5=Aint'cha got music?
TTITLE6=La mer
TTITLE7=La vie en rose
TTITLE8=Who?
TTITLE9=Nature boy
TTITLE10=When I grow too old to dream
TTITLE11=Plenty of money and you
TTITLE12=Moonglow
TTITLE13=I hope Gabriel likes my music
EXTD=YEAR: 2005
EXTT0=
EXTT1=
EXTT2=
EXTT3=
EXTT4=
EXTT5=
EXTT6=
EXTT7=
EXTT8=
EXTT9=
EXTT10=
EXTT11=
EXTT12=
EXTT13=
PLAYORDER=
